<svg width="16" height="16" viewBox="0 0 16 16" fill="none" xmlns="http://www.w3.org/2000/svg">
<path d="M2.99996 11C1.99996 11.84 1.66663 14.3333 1.66663 14.3333C1.66663 14.3333 4.15996 14 4.99996 13C5.47329 12.44 5.46663 11.58 4.93996 11.06C4.68083 10.8127 4.33949 10.6698 3.98144 10.6587C3.6234 10.6476 3.27388 10.7692 2.99996 11Z" stroke="white" stroke-width="1.33333" stroke-linecap="round" stroke-linejoin="round"/>
<path d="M8 9.99999L6 7.99999C6.35476 7.07961 6.80147 6.19737 7.33333 5.36666C8.11012 4.12465 9.19175 3.10203 10.4753 2.39605C11.7589 1.69008 13.2018 1.32424 14.6667 1.33333C14.6667 3.14666 14.1467 6.33333 10.6667 8.66666C9.82459 9.19914 8.93123 9.64582 8 9.99999Z" stroke="white" stroke-width="1.33333" stroke-linecap="round" stroke-linejoin="round"/>
<path d="M5.99996 8H2.66663C2.66663 8 3.03329 5.98 3.99996 5.33334C5.07996 4.61334 7.33329 5.33334 7.33329 5.33334" stroke="white" stroke-width="1.33333" stroke-linecap="round" stroke-linejoin="round"/>
<path d="M8 10V13.3333C8 13.3333 10.02 12.9667 10.6667 12C11.3867 10.92 10.6667 8.66667 10.6667 8.66667" stroke="white" stroke-width="1.33333" stroke-linecap="round" stroke-linejoin="round"/>
</svg>
